<svg width="28" height="29" viewBox="0 0 28 29" fill="none" xmlns="http://www.w3.org/2000/svg">
<path d="M21.4881 12.0134C21.4881 9.96174 20.6731 7.99412 19.2224 6.54339C17.7717 5.09266 15.804 4.27765 13.7524 4.27765C11.7007 4.27765 9.73314 5.09266 8.2824 6.54339C6.83167 7.99412 6.01666 9.96174 6.01666 12.0134C6.01666 15.1868 8.5557 19.3228 13.7524 24.2771C18.9491 19.3228 21.4881 15.1868 21.4881 12.0134ZM13.7524 26.6253C7.44863 20.8957 4.29761 16.0239 4.29761 12.0134C4.29761 9.50582 5.29373 7.10095 7.06685 5.32784C8.83997 3.55472 11.2448 2.55859 13.7524 2.55859C16.26 2.55859 18.6648 3.55472 20.4379 5.32784C22.2111 7.10095 23.2072 9.50582 23.2072 12.0134C23.2072 16.0239 20.0562 20.8957 13.7524 26.6253Z" fill="#7D7D7D"/>
<path d="M13.7524 14.5928C14.4363 14.5928 15.0922 14.3211 15.5757 13.8375C16.0593 13.3539 16.331 12.6981 16.331 12.0142C16.331 11.3303 16.0593 10.6744 15.5757 10.1909C15.0922 9.70728 14.4363 9.43561 13.7524 9.43561C13.0685 9.43561 12.4127 9.70728 11.9291 10.1909C11.4455 10.6744 11.1738 11.3303 11.1738 12.0142C11.1738 12.6981 11.4455 13.3539 11.9291 13.8375C12.4127 14.3211 13.0685 14.5928 13.7524 14.5928ZM13.7524 16.3118C12.6126 16.3118 11.5195 15.859 10.7135 15.0531C9.90756 14.2471 9.45477 13.154 9.45477 12.0142C9.45477 10.8744 9.90756 9.78126 10.7135 8.9753C11.5195 8.16934 12.6126 7.71655 13.7524 7.71655C14.8922 7.71655 15.9853 8.16934 16.7913 8.9753C17.5972 9.78126 18.05 10.8744 18.05 12.0142C18.05 13.154 17.5972 14.2471 16.7913 15.0531C15.9853 15.859 14.8922 16.3118 13.7524 16.3118Z" fill="#7D7D7D"/>
</svg>
